<?xml version="1.0" encoding="UTF-8"?>
<svg id="Layer_1" xmlns="http://www.w3.org/2000/svg" version="1.1" viewBox="0 0 500 500">
  <!-- Generator: Adobe Illustrator 29.2.1, SVG Export Plug-In . SVG Version: 2.1.0 Build 116)  -->
  <defs>
    <style>
      .st0 {
        fill: #00adee;
      }

      .st1 {
        fill: #0050a2;
      }

      .st1, .st2 {
        fill-rule: evenodd;
      }

      .st2 {
        fill: #009fdb;
      }
    </style>
  </defs>
  <g>
    <path class="st1" d="M250.52,178.34c-24.47-4-23.84-24.95-15.44-35.72,38.89-49.82,211.3-52.35,241.27-26.51,14.27,12.3-7.8,28.18-28.93,30.63-58.75,6.79-136.76-60.63-156.18,2.56-3.94,13.05-19.09,29.13-40.72,29.04"/>
    <path class="st2" d="M285.46,113.68c1.04-.31,2.71-.82,3.76-1.12,69.35-19.96,174.11-15.04,189.63,6.21,8.2,11.23-10.74,26-31.42,27.46-46.54,3.28-108.23-44.96-158.78-33.5-1.08.25-2.11.65-3.18.95"/>
    <path class="st2" d="M288.64,112.73c2.48,5.6,4.21,11.8,4.83,18.46,2.42,26.06-18.71,47.16-43.11,47.16-25.67,0-46.55-22.73-44.17-47.39.64-6.61,2.61-12.72,5.31-18.24h77.14Z"/>
    <path class="st1" d="M263.02,172.63c10.19-8.04,8.29-22.09,1.91-30.27-38.89-49.82-211.3-52.35-241.27-26.51-14.27,12.3,7.8,28.18,28.93,30.63,58.75,6.79,136.76-60.63,156.18,2.56,2.66,8.83,10.45,19.04,21.91,24.7,8.45,4.17,21.65,7.33,32.34-1.1"/>
    <path class="st1" d="M276.53,164.39c8.08-6.72,16.72-21.86,12-37.65,2.44,8.02-2.65,27.15-13.87,34.19.93.93,1.6,2.13,1.87,3.46"/>
    <path class="st2" d="M214.46,113.39c-1.04-.31-2.71-.82-3.76-1.12-69.35-19.96-174.11-15.04-189.63,6.21-8.2,11.23,10.74,26,31.42,27.46,47.54,3.35,110.82-46.91,161.96-32.55"/>
    <path class="st1" d="M273.29,161.99c1.01,0,1.83.82,1.83,1.83s-.82,1.83-1.83,1.83-1.83-.82-1.83-1.83.82-1.83,1.83-1.83"/>
  </g>
  <path class="st0" d="M379.71,289.07c-.06-10.2-2.03-19.78-5.84-28.62-3.81-8.91-9.09-16.71-15.85-23.46-6.76-6.69-14.62-11.98-23.52-15.78-8.97-3.81-18.55-5.77-28.86-5.83-11.12.06-21.5,2.33-31.01,6.76-9.52,4.48-17.75,10.69-24.63,18.67-6.88-7.98-15.11-14.19-24.63-18.67-9.52-4.42-19.9-6.69-31.01-6.76-10.32.06-19.9,2.03-28.8,5.83-8.97,3.81-16.83,9.09-23.58,15.78-6.76,6.76-12.04,14.56-15.85,23.46-3.81,8.84-5.77,18.42-5.83,28.62v92.86c.06,3.5.86,6.57,2.52,9.34,1.6,2.76,3.81,4.97,6.57,6.57,2.76,1.66,5.83,2.46,9.34,2.52,3.38-.06,6.39-.86,9.09-2.52,2.7-1.6,4.91-3.81,6.51-6.57,1.6-2.76,2.4-5.83,2.46-9.34v-92.86c.06-6.94,1.78-13.27,5.16-18.85,3.38-5.59,7.86-10.01,13.51-13.33,5.65-3.25,11.98-4.97,18.92-5.04,6.94.06,13.2,1.78,18.85,5.04,5.59,3.32,10.01,7.74,13.33,13.33,3.25,5.59,4.97,11.91,5.04,18.85v92.86c.06,3.5.92,6.57,2.58,9.34,1.66,2.76,3.87,4.97,6.63,6.57,2.76,1.66,5.83,2.46,9.21,2.52,3.38-.06,6.39-.86,9.09-2.52,2.7-1.6,4.91-3.81,6.51-6.57,1.6-2.76,2.4-5.83,2.46-9.34v-92.86c.06-6.94,1.78-13.27,5.16-18.85,3.38-5.59,7.86-10.01,13.51-13.33,5.65-3.25,11.98-4.97,18.92-5.04,6.94.06,13.27,1.78,18.92,5.04,5.65,3.32,10.13,7.74,13.51,13.33,3.38,5.59,5.1,11.91,5.16,18.85v92.86c.06,3.5.86,6.57,2.46,9.34,1.66,2.76,3.81,4.97,6.51,6.57,2.7,1.66,5.77,2.46,9.09,2.52,3.38-.06,6.45-.86,9.21-2.52,2.76-1.6,4.97-3.81,6.63-6.57,1.66-2.76,2.52-5.83,2.58-9.34v-89.54c0-.37,0-.68-.06-.92,0-.25-.12-.55-.31-.92.18-.18.31-.37.31-.61.06-.18.06-.49.06-.86Z"/>
</svg>