<?xml version="1.0" encoding="UTF-8"?>
<svg xmlns="http://www.w3.org/2000/svg" version="1.1" viewBox="0 0 85 35">
  <defs>
    <style>
      .cls-1 {
        fill: #0050a3;
      }

      .cls-1, .cls-2 {
        fill-rule: evenodd;
      }

      .cls-2 {
        fill: #00a0dc;
      }

      .cls-3 {
        fill: #00aeef;
      }
    </style>
  </defs>
  <!-- Generator: Adobe Illustrator 28.7.1, SVG Export Plug-In . SVG Version: 1.2.0 Build 142)  -->
  <g>
    <g id="Layer_1">
      <g>
        <path class="cls-1" d="M20.46,12.14c-2.1-.34-2.04-2.14-1.32-3.06,3.33-4.27,18.09-4.48,20.66-2.27,1.22,1.05-.67,2.41-2.48,2.62-5.03.58-11.71-5.19-13.37.22-.34,1.12-1.63,2.49-3.49,2.49"/>
        <path class="cls-2" d="M23.45,6.6c.09-.03.23-.07.32-.1,5.94-1.71,14.91-1.29,16.24.53.7.96-.92,2.23-2.69,2.35-3.99.28-9.27-3.85-13.6-2.87-.09.02-.18.06-.27.08"/>
        <path class="cls-2" d="M23.73,6.52c.21.48.36,1.01.41,1.58.21,2.23-1.6,4.04-3.69,4.04-2.2,0-3.99-1.95-3.78-4.06.05-.57.22-1.09.45-1.56h6.61Z"/>
        <path class="cls-1" d="M21.53,11.65c.87-.69.71-1.89.16-2.59C18.36,4.79,3.6,4.57,1.03,6.79c-1.22,1.05.67,2.41,2.48,2.62,5.03.58,11.71-5.19,13.37.22.23.76.9,1.63,1.88,2.11.72.36,1.85.63,2.77-.09"/>
        <path class="cls-1" d="M22.69,10.94c.69-.58,1.43-1.87,1.03-3.22.21.69-.23,2.33-1.19,2.93.08.08.14.18.16.3"/>
        <path class="cls-2" d="M17.37,6.58c-.09-.03-.23-.07-.32-.1-5.94-1.71-14.91-1.29-16.24.53-.7.96.92,2.23,2.69,2.35,4.07.29,9.49-4.02,13.87-2.79"/>
        <path class="cls-1" d="M22.41,10.74c.09,0,.16.07.16.16s-.07.16-.16.16-.16-.07-.16-.16.07-.16.16-.16"/>
        <path class="cls-3" d="M79.37,24.04c.64,0,1.25-.1,1.83-.31.58-.2,1.12-.49,1.6-.87.48-.38.9-.84,1.24-1.37.11-.17.17-.35.18-.55.01-.19-.03-.37-.11-.55-.08-.17-.21-.32-.38-.43-.17-.1-.35-.16-.55-.17-.19,0-.37.03-.55.11-.17.08-.32.21-.43.38-.21.33-.46.61-.75.84-.3.23-.62.41-.98.53-.35.12-.72.18-1.11.18-.46,0-.9-.09-1.3-.27-.4-.17-.76-.42-1.07-.72-.31-.31-.55-.67-.73-1.07-.17-.4-.26-.84-.27-1.3,0-.47.09-.9.27-1.31.18-.41.42-.76.73-1.07.31-.31.67-.55,1.07-.72.41-.17.84-.26,1.3-.26.41,0,.8.07,1.17.2.37.14.71.33,1.01.58.3.25.55.55.75.89.11.17.24.3.41.4.17.09.35.14.54.14.19,0,.38-.04.56-.14.17-.11.3-.24.4-.41.1-.17.14-.34.15-.54,0-.19-.04-.38-.15-.56-.34-.57-.75-1.06-1.25-1.47-.5-.41-1.05-.73-1.66-.95-.61-.23-1.25-.34-1.92-.34-.77,0-1.49.15-2.16.44-.67.28-1.25.68-1.76,1.19-.51.51-.91,1.09-1.19,1.76-.28.67-.43,1.39-.44,2.17,0,.77.15,1.49.44,2.15.28.67.68,1.26,1.19,1.77.51.51,1.09.91,1.76,1.19.67.29,1.39.44,2.16.44M71.48,10.71c.15,0,.28-.03.42-.08.13-.05.25-.13.35-.23.1-.1.18-.22.23-.35.06-.13.08-.27.08-.42s-.03-.28-.08-.42c-.05-.14-.13-.25-.23-.35-.1-.1-.22-.18-.35-.24-.14-.06-.27-.09-.42-.09s-.28.03-.42.09c-.13.06-.25.14-.35.24-.1.1-.18.22-.24.35-.06.13-.09.27-.09.42s.03.29.09.42c.06.14.14.25.24.35.1.1.22.18.35.23.14.06.28.08.42.08ZM71.48,24.04c.2,0,.38-.05.55-.15.16-.1.3-.23.39-.4.1-.17.14-.35.15-.57v-8.92c0-.2-.05-.38-.15-.55-.1-.16-.23-.29-.39-.39-.16-.1-.34-.14-.55-.15-.21,0-.4.05-.56.15-.17.1-.3.23-.4.39-.1.16-.15.34-.15.55v8.92c0,.21.05.4.15.57.1.17.23.3.4.4.17.1.35.14.56.15ZM67.98,12.88h-1.95c0-.5.08-.96.24-1.39.16-.42.41-.81.74-1.14.38-.38.8-.64,1.26-.8.19-.07.35-.18.47-.33.12-.15.2-.31.24-.5.04-.19.02-.38-.04-.57-.07-.19-.18-.35-.33-.48-.15-.13-.31-.21-.5-.24-.19-.03-.38-.02-.57.06-.4.13-.77.31-1.12.53-.35.22-.67.48-.97.78-.54.54-.94,1.15-1.22,1.85-.28.69-.41,1.44-.4,2.23h-1.22c-.2,0-.38.05-.55.15-.16.1-.3.23-.39.39-.1.16-.14.34-.15.55,0,.21.05.4.15.56.1.17.23.3.39.4.16.1.34.15.55.15h1.22v7.84c0,.21.05.4.15.57.1.17.23.3.39.4.16.1.34.15.55.15.21,0,.4-.05.56-.15.17-.1.3-.23.4-.4.1-.17.14-.35.15-.57v-7.84h1.95c.21,0,.4-.05.56-.15.17-.1.3-.23.4-.4.1-.17.14-.35.15-.56,0-.2-.05-.38-.15-.55-.1-.16-.23-.3-.4-.39-.17-.1-.35-.14-.56-.15ZM59.02,10.71c.15,0,.28-.03.42-.08.13-.05.25-.13.35-.23.1-.1.18-.22.23-.35.06-.13.08-.27.08-.42s-.03-.28-.08-.42c-.05-.14-.13-.25-.23-.35-.1-.1-.22-.18-.35-.24-.14-.06-.27-.09-.42-.09s-.28.03-.42.09c-.13.06-.25.14-.35.24-.1.1-.18.22-.24.35-.06.13-.09.27-.09.42s.03.29.09.42c.06.14.14.25.24.35.1.1.22.18.35.23.14.06.28.08.42.08ZM59.02,24.04c.2,0,.38-.05.55-.15.16-.1.3-.23.39-.4.1-.17.14-.35.15-.57v-8.92c0-.2-.05-.38-.15-.55-.1-.16-.23-.29-.39-.39-.16-.1-.34-.14-.55-.15-.21,0-.4.05-.56.15-.17.1-.3.23-.4.39-.1.16-.15.34-.15.55v8.92c0,.21.05.4.15.57.1.17.23.3.4.4.17.1.35.14.56.15ZM51.08,12.88c-.77,0-1.49.15-2.16.44-.67.28-1.26.68-1.77,1.19-.51.51-.91,1.1-1.2,1.77-.29.67-.44,1.4-.44,2.17v4.47c0,.21.05.4.15.57.1.17.23.3.39.4.16.1.34.15.55.15.21,0,.4-.05.56-.15.17-.1.3-.23.4-.4.1-.17.14-.35.15-.57v-4.47c0-.47.09-.91.27-1.32.17-.41.41-.76.72-1.07.31-.31.67-.55,1.07-.72.41-.17.84-.26,1.31-.27.47,0,.91.09,1.31.27.41.17.76.41,1.07.72.31.31.55.67.72,1.07.17.41.26.85.26,1.32v4.47c0,.21.05.4.15.57.1.17.23.3.39.4.16.1.34.15.55.15.21,0,.4-.05.57-.15.17-.1.3-.23.4-.4.1-.17.14-.35.15-.57v-4.47c0-.78-.15-1.5-.44-2.17-.29-.67-.69-1.26-1.19-1.77-.51-.51-1.1-.91-1.77-1.19-.67-.28-1.39-.43-2.16-.44ZM38.65,21.84c-.47,0-.91-.09-1.31-.27-.41-.17-.76-.42-1.07-.73-.31-.31-.55-.67-.72-1.08-.17-.41-.26-.84-.27-1.31,0-.47.09-.91.27-1.32.17-.41.41-.77.72-1.08.31-.31.67-.55,1.07-.72.41-.17.84-.26,1.31-.27.46,0,.9.09,1.3.27.4.17.76.41,1.07.72.31.31.55.67.73,1.08.17.41.26.85.27,1.32,0,.47-.09.9-.27,1.31-.18.41-.42.76-.73,1.08-.31.31-.67.55-1.07.73-.41.18-.84.27-1.3.27ZM44.21,18.46c0-.78-.15-1.5-.44-2.18-.29-.67-.69-1.26-1.19-1.77-.51-.51-1.1-.91-1.77-1.19-.67-.28-1.39-.43-2.16-.44-.78,0-1.5.15-2.17.44-.67.28-1.26.68-1.77,1.19-.51.51-.91,1.1-1.19,1.77-.28.67-.43,1.4-.44,2.18,0,.77.15,1.49.44,2.17.28.67.68,1.26,1.19,1.77.51.51,1.1.91,1.77,1.2.67.29,1.39.44,2.17.44.64,0,1.23-.11,1.8-.31.57-.2,1.09-.48,1.57-.84v1.22c-.01.46-.11.89-.28,1.28-.18.4-.42.75-.73,1.05-.31.3-.66.54-1.06.71-.4.17-.84.25-1.3.26-.44,0-.85-.08-1.24-.23-.39-.16-.74-.37-1.04-.66-.31-.28-.56-.62-.75-1.02-.09-.18-.22-.32-.38-.42-.16-.1-.34-.16-.52-.18-.19-.01-.38.02-.56.11-.18.09-.33.22-.44.37-.11.16-.17.33-.18.52-.01.19.02.38.11.57.32.65.74,1.2,1.25,1.67.51.47,1.08.83,1.72,1.08.64.25,1.32.38,2.04.38.77,0,1.49-.15,2.16-.44.67-.29,1.26-.69,1.77-1.19.51-.51.91-1.1,1.19-1.77.29-.67.44-1.39.44-2.16v-5.55s0-.03,0-.03ZM26.3,21.86c-.47,0-.91-.08-1.32-.25-.41-.17-.78-.4-1.09-.69-.32-.3-.57-.64-.75-1.04-.18-.4-.27-.84-.27-1.3,0-.47.1-.91.27-1.33.18-.41.43-.78.75-1.1.32-.32.68-.57,1.09-.75.41-.18.85-.27,1.32-.28.47,0,.9.1,1.3.28.4.18.75.43,1.04.75.3.32.53.68.69,1.1.17.41.25.86.25,1.33,0,.63-.15,1.19-.44,1.68-.28.49-.67.88-1.17,1.17-.49.29-1.05.43-1.68.44ZM26.3,12.95c-.79,0-1.52.15-2.19.44-.68.29-1.27.69-1.78,1.2-.51.51-.91,1.11-1.2,1.78-.28.68-.43,1.42-.44,2.2,0,.79.15,1.51.44,2.18.29.67.69,1.24,1.2,1.73.51.49,1.1.87,1.78,1.14.68.27,1.41.41,2.19.41.63,0,1.22-.08,1.76-.25.54-.17,1.05-.46,1.52-.85,0,.21.06.41.18.57.11.17.25.3.41.39.16.09.32.14.47.14.33,0,.59-.11.79-.31.2-.2.31-.47.31-.79v-4.36c0-.79-.14-1.52-.41-2.2-.27-.68-.65-1.27-1.14-1.78-.49-.51-1.06-.91-1.73-1.2-.66-.28-1.39-.43-2.17-.44ZM19.36,17.38c0-.61-.12-1.19-.35-1.72-.23-.54-.55-1.01-.95-1.41-.41-.4-.88-.72-1.42-.95-.54-.23-1.12-.35-1.74-.35-.67,0-1.29.14-1.87.41-.57.27-1.07.64-1.48,1.12-.41-.48-.91-.85-1.48-1.12-.57-.27-1.2-.4-1.87-.41-.62,0-1.2.12-1.73.35-.54.23-1.01.55-1.42.95-.41.41-.72.88-.95,1.41-.23.53-.35,1.11-.35,1.72v5.59c0,.21.05.4.15.56.1.17.23.3.4.4.17.1.35.15.56.15.2,0,.38-.05.55-.15.16-.1.3-.23.39-.4.1-.17.14-.35.15-.56v-5.59c0-.42.11-.8.31-1.13.2-.34.47-.6.81-.8.34-.2.72-.3,1.14-.3.42,0,.79.11,1.13.3.34.2.6.47.8.8.2.34.3.72.3,1.13v5.59c0,.21.06.4.16.56.1.17.23.3.4.4.17.1.35.15.55.15.2,0,.38-.05.55-.15.16-.1.3-.23.39-.4.1-.17.14-.35.15-.56v-5.59c0-.42.11-.8.31-1.13.2-.34.47-.6.81-.8.34-.2.72-.3,1.14-.3.42,0,.8.11,1.14.3.34.2.61.47.81.8.2.34.31.72.31,1.13v5.59c0,.21.05.4.15.56.1.17.23.3.39.4.16.1.35.15.55.15.2,0,.39-.05.55-.15.17-.1.3-.23.4-.4.1-.17.15-.35.16-.56v-5.39s0-.04,0-.06c0-.01,0-.03-.02-.06.01-.01.02-.02.02-.04,0-.01,0-.03,0-.05Z"/>
      </g>
    </g>
  </g>
</svg>